<svg width="311" height="52" viewBox="0 0 311 52" fill="none" xmlns="http://www.w3.org/2000/svg">
<path d="M10.4167 32.6666H8.74999C5.61784 32.6666 4.05176 32.6666 3.00621 31.8408C2.83897 31.7088 2.68431 31.5633 2.54399 31.4058C1.66666 30.4218 1.66666 28.9478 1.66666 25.9999C1.66666 23.052 1.66666 21.5781 2.54399 20.594C2.68431 20.4366 2.83897 20.291 3.00621 20.159C4.05176 19.3333 5.61784 19.3333 8.74999 19.3333H11.25C14.3822 19.3333 15.9482 19.3333 16.9937 20.159C17.161 20.291 17.3157 20.4366 17.456 20.594C18.1995 21.4279 18.3129 22.6136 18.3302 24.7499" stroke="black" stroke-width="1.5" stroke-linecap="round" stroke-linejoin="round"/>
<path d="M15.4167 32.6666V26.8333M12.5 29.7499H18.3333" stroke="black" stroke-width="1.5" stroke-linecap="round"/>
<path d="M1.66666 23.5H18.3333" stroke="black" stroke-width="1.5" stroke-linejoin="round"/>
<path d="M32.62 22.656L29.33 30.664C29.2927 30.776 29.2273 30.8647 29.134 30.93C29.0407 30.9953 28.9427 31.028 28.84 31.028C28.6627 31.028 28.532 30.9813 28.448 30.888C28.364 30.7947 28.322 30.6827 28.322 30.552C28.3127 30.4867 28.322 30.4167 28.35 30.342L31.976 21.522C32.0227 21.3913 32.0927 21.298 32.186 21.242C32.2887 21.1767 32.4007 21.1487 32.522 21.158C32.6433 21.158 32.7507 21.1907 32.844 21.256C32.9467 21.3213 33.0167 21.41 33.054 21.522L36.666 30.258C36.694 30.3327 36.708 30.4073 36.708 30.482C36.708 30.65 36.652 30.7853 36.54 30.888C36.428 30.9813 36.302 31.028 36.162 31.028C36.05 31.028 35.9473 30.9953 35.854 30.93C35.7607 30.8647 35.6907 30.7713 35.644 30.65L32.312 22.642L32.62 22.656ZM30.03 28.382L30.506 27.29H34.664L34.874 28.382H30.03ZM41.6158 23.58C42.2504 23.58 42.8198 23.7433 43.3238 24.07C43.8278 24.3873 44.2244 24.826 44.5138 25.386C44.8124 25.946 44.9618 26.5947 44.9618 27.332C44.9618 28.0693 44.8124 28.7227 44.5138 29.292C44.2244 29.8613 43.8278 30.314 43.3238 30.65C42.8291 30.9767 42.2691 31.14 41.6438 31.14C41.2984 31.14 40.9718 31.0887 40.6638 30.986C40.3651 30.874 40.0898 30.7293 39.8378 30.552C39.5951 30.3653 39.3898 30.1647 39.2218 29.95C39.0538 29.726 38.9324 29.5067 38.8578 29.292L39.1658 29.096V30.496C39.1658 30.6547 39.1144 30.79 39.0118 30.902C38.9091 31.014 38.7738 31.07 38.6058 31.07C38.4471 31.07 38.3118 31.0187 38.1998 30.916C38.0971 30.804 38.0458 30.664 38.0458 30.496V21.214C38.0458 21.0553 38.0971 20.92 38.1998 20.808C38.3118 20.696 38.4471 20.64 38.6058 20.64C38.7738 20.64 38.9091 20.696 39.0118 20.808C39.1144 20.92 39.1658 21.0553 39.1658 21.214V25.526L38.9558 25.414C39.0211 25.1807 39.1331 24.9567 39.2918 24.742C39.4598 24.518 39.6604 24.322 39.8938 24.154C40.1364 23.9767 40.4024 23.8367 40.6918 23.734C40.9904 23.6313 41.2984 23.58 41.6158 23.58ZM41.4898 24.616C41.0231 24.616 40.6078 24.7327 40.2438 24.966C39.8891 25.1993 39.6091 25.5213 39.4038 25.932C39.2078 26.3427 39.1098 26.8093 39.1098 27.332C39.1098 27.8547 39.2078 28.326 39.4038 28.746C39.6091 29.166 39.8891 29.4973 40.2438 29.74C40.6078 29.9827 41.0231 30.104 41.4898 30.104C41.9564 30.104 42.3671 29.9827 42.7218 29.74C43.0764 29.4973 43.3564 29.166 43.5618 28.746C43.7671 28.326 43.8698 27.8547 43.8698 27.332C43.8698 26.8093 43.7671 26.3427 43.5618 25.932C43.3564 25.5213 43.0764 25.1993 42.7218 24.966C42.3671 24.7327 41.9564 24.616 41.4898 24.616ZM53.5194 27.36C53.5194 28.088 53.356 28.7367 53.0294 29.306C52.712 29.8753 52.278 30.3233 51.7274 30.65C51.186 30.9767 50.5747 31.14 49.8934 31.14C49.212 31.14 48.596 30.9767 48.0454 30.65C47.4947 30.3233 47.056 29.8753 46.7294 29.306C46.412 28.7367 46.2534 28.088 46.2534 27.36C46.2534 26.632 46.412 25.9833 46.7294 25.414C47.056 24.8447 47.4947 24.3967 48.0454 24.07C48.596 23.7433 49.212 23.58 49.8934 23.58C50.5747 23.58 51.186 23.7433 51.7274 24.07C52.278 24.3967 52.712 24.8447 53.0294 25.414C53.356 25.9833 53.5194 26.632 53.5194 27.36ZM52.3994 27.36C52.3994 26.8187 52.2874 26.3427 52.0634 25.932C51.8487 25.5213 51.55 25.1993 51.1674 24.966C50.794 24.7327 50.3694 24.616 49.8934 24.616C49.4174 24.616 48.988 24.7327 48.6054 24.966C48.232 25.1993 47.9334 25.5213 47.7094 25.932C47.4854 26.3427 47.3734 26.8187 47.3734 27.36C47.3734 27.892 47.4854 28.3633 47.7094 28.774C47.9334 29.1847 48.232 29.5113 48.6054 29.754C48.988 29.9873 49.4174 30.104 49.8934 30.104C50.3694 30.104 50.794 29.9873 51.1674 29.754C51.55 29.5113 51.8487 29.1847 52.0634 28.774C52.2874 28.3633 52.3994 27.892 52.3994 27.36ZM60.622 23.762C60.79 23.762 60.9253 23.818 61.028 23.93C61.1306 24.0327 61.182 24.1633 61.182 24.322V28.144C61.182 29.0867 60.916 29.8193 60.384 30.342C59.8613 30.8553 59.1286 31.112 58.186 31.112C57.2526 31.112 56.52 30.8553 55.988 30.342C55.4653 29.8193 55.204 29.0867 55.204 28.144V24.322C55.204 24.1633 55.2553 24.0327 55.358 23.93C55.47 23.818 55.6053 23.762 55.764 23.762C55.932 23.762 56.0673 23.818 56.17 23.93C56.2726 24.0327 56.324 24.1633 56.324 24.322V28.144C56.324 28.7787 56.4873 29.2593 56.814 29.586C57.1406 29.9127 57.598 30.076 58.186 30.076C58.7926 30.076 59.2546 29.9127 59.572 29.586C59.8986 29.2593 60.062 28.7787 60.062 28.144V24.322C60.062 24.1633 60.1133 24.0327 60.216 23.93C60.328 23.818 60.4633 23.762 60.622 23.762ZM62.9767 23.804H66.2667C66.416 23.804 66.5374 23.8553 66.6307 23.958C66.7334 24.0607 66.7847 24.182 66.7847 24.322C66.7847 24.4713 66.7334 24.5973 66.6307 24.7C66.5374 24.7933 66.416 24.84 66.2667 24.84H62.9767C62.8367 24.84 62.7154 24.7887 62.6127 24.686C62.51 24.5833 62.4587 24.4573 62.4587 24.308C62.4587 24.168 62.51 24.0513 62.6127 23.958C62.7154 23.8553 62.8367 23.804 62.9767 23.804ZM64.4467 21.9C64.6054 21.9 64.736 21.956 64.8387 22.068C64.9414 22.1707 64.9927 22.3013 64.9927 22.46V29.222C64.9927 29.446 65.0254 29.614 65.0907 29.726C65.156 29.838 65.24 29.9173 65.3427 29.964C65.4547 30.0013 65.562 30.02 65.6647 30.02C65.758 30.02 65.8374 30.006 65.9027 29.978C65.9774 29.9407 66.0614 29.922 66.1547 29.922C66.248 29.922 66.332 29.9687 66.4067 30.062C66.4907 30.146 66.5327 30.258 66.5327 30.398C66.5327 30.566 66.4347 30.7107 66.2387 30.832C66.0427 30.944 65.8234 31 65.5807 31C65.45 31 65.2867 30.9907 65.0907 30.972C64.904 30.9533 64.7174 30.8927 64.5307 30.79C64.344 30.6873 64.1854 30.5193 64.0547 30.286C63.9334 30.0433 63.8727 29.7073 63.8727 29.278V22.46C63.8727 22.3013 63.9287 22.1707 64.0407 22.068C64.1527 21.956 64.288 21.9 64.4467 21.9ZM79.3381 21.186C79.4968 21.186 79.6274 21.242 79.7301 21.354C79.8328 21.466 79.8841 21.6013 79.8841 21.76V27.318C79.8841 28.0367 79.7161 28.6807 79.3801 29.25C79.0534 29.8193 78.6101 30.272 78.0501 30.608C77.4901 30.9347 76.8554 31.098 76.1461 31.098C75.4274 31.098 74.7834 30.9347 74.2141 30.608C73.6541 30.272 73.2108 29.8193 72.8841 29.25C72.5574 28.6807 72.3941 28.0367 72.3941 27.318V21.76C72.3941 21.6013 72.4454 21.466 72.5481 21.354C72.6601 21.242 72.8048 21.186 72.9821 21.186C73.1314 21.186 73.2621 21.242 73.3741 21.354C73.4954 21.466 73.5561 21.6013 73.5561 21.76V27.318C73.5561 27.8313 73.6728 28.2887 73.9061 28.69C74.1394 29.0913 74.4521 29.4087 74.8441 29.642C75.2454 29.866 75.6794 29.978 76.1461 29.978C76.6221 29.978 77.0608 29.866 77.4621 29.642C77.8634 29.4087 78.1854 29.0913 78.4281 28.69C78.6801 28.2887 78.8061 27.8313 78.8061 27.318V21.76C78.8061 21.6013 78.8528 21.466 78.9461 21.354C79.0394 21.242 79.1701 21.186 79.3381 21.186ZM81.7316 29.852C81.6476 29.7307 81.6102 29.6047 81.6196 29.474C81.6289 29.334 81.7082 29.2127 81.8576 29.11C81.9509 29.0447 82.0582 29.0167 82.1796 29.026C82.3102 29.0353 82.4269 29.096 82.5296 29.208C82.7909 29.516 83.0896 29.7633 83.4256 29.95C83.7616 30.1273 84.1722 30.216 84.6576 30.216C84.8816 30.2067 85.1056 30.1693 85.3296 30.104C85.5536 30.0387 85.7402 29.9267 85.8896 29.768C86.0482 29.6 86.1276 29.3807 86.1276 29.11C86.1276 28.8487 86.0482 28.6433 85.8896 28.494C85.7309 28.3353 85.5256 28.2093 85.2736 28.116C85.0216 28.0133 84.7462 27.9247 84.4476 27.85C84.1396 27.766 83.8362 27.6727 83.5376 27.57C83.2389 27.458 82.9682 27.3227 82.7256 27.164C82.4922 26.996 82.3009 26.7907 82.1516 26.548C82.0116 26.296 81.9416 25.9927 81.9416 25.638C81.9416 25.218 82.0536 24.854 82.2776 24.546C82.5109 24.238 82.8189 24 83.2016 23.832C83.5936 23.664 84.0182 23.58 84.4756 23.58C84.7369 23.58 85.0076 23.6127 85.2876 23.678C85.5769 23.734 85.8569 23.8367 86.1276 23.986C86.3982 24.126 86.6362 24.322 86.8416 24.574C86.9256 24.6673 86.9722 24.784 86.9816 24.924C86.9909 25.064 86.9302 25.19 86.7996 25.302C86.6969 25.3767 86.5802 25.4093 86.4496 25.4C86.3282 25.3907 86.2256 25.344 86.1416 25.26C85.9456 25.0267 85.6982 24.8493 85.3996 24.728C85.1102 24.5973 84.7882 24.532 84.4336 24.532C84.2096 24.532 83.9902 24.5647 83.7756 24.63C83.5609 24.6953 83.3789 24.8073 83.2296 24.966C83.0896 25.1153 83.0196 25.3253 83.0196 25.596C83.0289 25.848 83.1129 26.0533 83.2716 26.212C83.4302 26.3707 83.6449 26.5013 83.9156 26.604C84.1862 26.6973 84.4849 26.7907 84.8116 26.884C85.1102 26.9587 85.3949 27.0473 85.6656 27.15C85.9456 27.2433 86.1976 27.3693 86.4216 27.528C86.6456 27.6867 86.8229 27.892 86.9536 28.144C87.0842 28.3867 87.1496 28.6947 87.1496 29.068C87.1496 29.4973 87.0282 29.8707 86.7856 30.188C86.5429 30.496 86.2209 30.734 85.8196 30.902C85.4276 31.0607 85.0029 31.14 84.5456 31.14C84.0322 31.14 83.5236 31.042 83.0196 30.846C82.5249 30.65 82.0956 30.3187 81.7316 29.852Z" fill="#1D1615"/>
</svg>
