<svg width="20" height="20" viewBox="0 0 20 20" fill="none" xmlns="http://www.w3.org/2000/svg">
<g id="customer-service-01-stroke-rounded 1" clip-path="url(#clip0_717_1577)">
<path id="Vector" d="M14.1667 9.837C14.1667 9.54892 14.1667 9.40492 14.21 9.27659C14.336 8.90358 14.6682 8.75892 15.0009 8.60734C15.375 8.43692 15.562 8.35175 15.7473 8.33675C15.9577 8.31973 16.1685 8.36508 16.3483 8.466C16.5867 8.59975 16.753 8.854 16.9232 9.06075C17.7094 10.0156 18.1024 10.4931 18.2462 11.0196C18.3623 11.4444 18.3623 11.8888 18.2462 12.3136C18.0365 13.0815 17.3737 13.7253 16.8832 14.3211C16.6322 14.6258 16.5067 14.7783 16.3483 14.8672C16.1685 14.9681 15.9577 15.0134 15.7473 14.9964C15.562 14.9814 15.375 14.8963 15.0009 14.7258C14.6682 14.5743 14.336 14.4296 14.21 14.0566C14.1667 13.9283 14.1667 13.7843 14.1667 13.4962V9.837Z" stroke="#141B34" stroke-width="1.5"/>
<path id="Vector_2" d="M5.83332 9.83706C5.83332 9.47439 5.82314 9.14839 5.52992 8.89339C5.42327 8.80064 5.28186 8.73623 4.99908 8.60739C4.625 8.43706 4.43796 8.35189 4.25262 8.33689C3.69658 8.29189 3.39742 8.67139 3.07676 9.06089C2.29061 10.0157 1.89754 10.4931 1.75371 11.0196C1.63764 11.4446 1.63764 11.8889 1.75371 12.3137C1.96349 13.0816 2.62626 13.7253 3.11683 14.3212C3.42606 14.6968 3.72146 15.0395 4.25262 14.9966C4.43796 14.9816 4.625 14.8963 4.99908 14.726C5.28186 14.5971 5.42327 14.5327 5.52992 14.44C5.82314 14.185 5.83332 13.8591 5.83332 13.4963V9.83706Z" stroke="#141B34" stroke-width="1.5"/>
<path id="Vector_3" d="M16.6667 8.75008V7.50008C16.6667 4.27842 13.6819 1.66675 10 1.66675C6.31811 1.66675 3.33334 4.27842 3.33334 7.50008V8.75008" stroke="#141B34" stroke-width="1.5" stroke-linecap="round" stroke-linejoin="round"/>
<path id="Vector_4" d="M16.6667 14.5833C16.6667 18.3333 13.3333 18.3333 10 18.3333" stroke="#141B34" stroke-width="1.5" stroke-linecap="round" stroke-linejoin="round"/>
</g>
<defs>
<clipPath id="clip0_717_1577">
<rect width="20" height="20" fill="white"/>
</clipPath>
</defs>
</svg>
