<svg width="20" height="20" viewBox="0 0 20 20" fill="none"
    xmlns="http://www.w3.org/2000/svg">
    <path d="M5.00161 6.25C4.27203 6.36877 3.73485 6.58721 3.29946 6.98892C2.34516 7.86938 2.21193 9.32392 1.94545 12.2331L1.67314 15.2061C1.5698 16.6707 2.71552 17.9167 4.16581 17.9167H4.78804C5.80991 17.9167 6.72882 17.2867 7.10834 16.3261L7.727 14.7601C7.92992 14.2463 8.03139 13.9895 8.24303 13.8445C8.45465 13.6994 8.72799 13.6994 9.27457 13.6994H10.7254C11.272 13.6994 11.5453 13.6994 11.757 13.8445C11.9686 13.9895 12.0701 14.2463 12.273 14.7601L12.8917 16.3261C13.2712 17.2867 14.1901 17.9167 15.2119 17.9167H15.8342C17.2845 17.9167 18.4302 16.6707 18.3268 15.2061L18.0571 12.2379C17.7925 9.32667 17.6602 7.87101 16.7057 6.98972C16.2701 6.5875 15.7324 6.36886 15.002 6.25" stroke="black" stroke-width="1.5" stroke-linecap="round" stroke-linejoin="round"/>
    <path d="M14.1665 10.4167H14.174" stroke="black" stroke-width="2" stroke-linecap="round" stroke-linejoin="round"/>
    <path d="M5.83316 10.4167H5.84064" stroke="black" stroke-width="2" stroke-linecap="round" stroke-linejoin="round"/>
    <path d="M9.99832 2.08325L10.2133 2.66411C10.4952 3.42577 10.6361 3.8066 10.9139 4.08441C11.1917 4.36223 11.5725 4.50314 12.3342 4.78499L12.915 4.99992L12.3342 5.21485C11.5725 5.49669 11.1917 5.63762 10.9139 5.91543C10.6361 6.19324 10.4952 6.57407 10.2133 7.33573L9.99832 7.91659L9.7834 7.33573C9.50157 6.57407 9.36065 6.19324 9.08282 5.91543C8.80507 5.63761 8.42424 5.49669 7.66255 5.21485L7.0817 4.99992L7.66255 4.78499C8.42424 4.50314 8.80507 4.36223 9.08282 4.08441C9.36065 3.8066 9.50157 3.42577 9.7834 2.66411L9.99832 2.08325Z" stroke="black" stroke-width="1.5" stroke-linejoin="round"/>
</svg>
