<svg width="20" height="20" viewBox="0 0 20 20" fill="none"
    xmlns="http://www.w3.org/2000/svg">
    <g clip-path="url(#clip0_724_878)">
        <path d="M8.74999 18.3334H5.49238C4.20457 18.3334 3.18025 17.7067 2.26054 16.8306C0.377795 15.0368 3.46899 13.6034 4.64797 12.9014C6.77337 11.6358 9.33807 11.3432 11.6667 12.0235" stroke="black" stroke-width="1.5" stroke-linecap="round" stroke-linejoin="round"/>
        <path d="M13.75 5.41675C13.75 7.48782 12.0711 9.16675 10 9.16675C7.92893 9.16675 6.25 7.48782 6.25 5.41675C6.25 3.34568 7.92893 1.66675 10 1.66675C12.0711 1.66675 13.75 3.34568 13.75 5.41675Z" stroke="black" stroke-width="1.5"/>
        <path d="M15.361 11.5404C15.6404 11.2375 15.7802 11.0862 15.9286 10.9979C16.2868 10.7848 16.728 10.7782 17.0922 10.9804C17.2432 11.0642 17.3872 11.2114 17.6752 11.5055C17.9632 11.7998 18.1072 11.9469 18.1893 12.1011C18.3872 12.4732 18.3807 12.9239 18.1722 13.2898C18.0857 13.4414 17.9376 13.5842 17.6412 13.8697L14.1148 17.2661C13.5532 17.8071 13.2723 18.0776 12.9213 18.2147C12.5704 18.3518 12.1845 18.3417 11.4128 18.3215L11.3078 18.3188C11.0729 18.3126 10.9555 18.3095 10.8872 18.232C10.8189 18.1545 10.8282 18.0349 10.8468 17.7956L10.857 17.6656C10.9095 16.9921 10.9357 16.6554 11.0672 16.3526C11.1987 16.0499 11.4256 15.8041 11.8793 15.3124L15.361 11.5404Z" stroke="black" stroke-width="1.5" stroke-linejoin="round"/>
    </g>
    <defs>
        <clipPath id="clip0_724_878">
            <rect width="20" height="20" fill="white"/>
        </clipPath>
    </defs>
</svg>
