<svg width="311" height="52" viewBox="0 0 311 52" fill="none" xmlns="http://www.w3.org/2000/svg">
<path d="M12.5 22.2499C12.5 22.2499 12.9167 22.2499 13.3333 23.0833C13.3333 23.0833 14.6568 20.9999 15.8333 20.5833" stroke="black" stroke-width="1.5" stroke-linecap="round" stroke-linejoin="round"/>
<path d="M18.3333 21.8334C18.3333 24.1346 16.4678 26.0001 14.1667 26.0001C11.8655 26.0001 10 24.1346 10 21.8334C10 19.5322 11.8655 17.6667 14.1667 17.6667C16.4678 17.6667 18.3333 19.5322 18.3333 21.8334Z" stroke="black" stroke-width="1.5" stroke-linecap="round"/>
<path d="M18.9583 27.0371C18.9577 26.6918 18.6774 26.4125 18.3322 26.4132C17.9871 26.4138 17.7077 26.6941 17.7083 27.0393L18.9583 27.0371ZM7.55484 21.6274C7.90002 21.6255 8.17825 21.3441 8.1763 20.9989C8.17434 20.6537 7.89294 20.3755 7.54777 20.3775L7.55484 21.6274ZM11.25 33.7087H8.74999V34.9587H11.25V33.7087ZM8.74999 33.7087C7.16925 33.7087 6.03627 33.7078 5.16578 33.6094C4.30679 33.5123 3.78632 33.3276 3.39357 33.0174L2.61885 33.9984C3.27166 34.514 4.05701 34.7421 5.02547 34.8515C5.98246 34.9596 7.19859 34.9587 8.74999 34.9587V33.7087ZM1.04166 27.667C1.04166 29.1244 1.04047 30.2768 1.15634 31.1855C1.27442 32.1114 1.52233 32.8662 2.07747 33.4888L3.01051 32.657C2.68832 32.2956 2.49756 31.8213 2.39631 31.0273C2.29285 30.2161 2.29166 29.1575 2.29166 27.667H1.04166ZM3.39357 33.0174C3.25453 32.9077 3.12641 32.787 3.01051 32.657L2.07747 33.4888C2.24222 33.6737 2.42342 33.8441 2.61885 33.9984L3.39357 33.0174ZM17.7083 27.667C17.7083 29.1575 17.7072 30.2161 17.6037 31.0273C17.5024 31.8213 17.3117 32.2956 16.9895 32.657L17.9225 33.4888C18.4777 32.8662 18.7256 32.1114 18.8437 31.1855C18.9595 30.2768 18.9583 29.1244 18.9583 27.667H17.7083ZM11.25 34.9587C12.8014 34.9587 14.0175 34.9596 14.9745 34.8515C15.943 34.7421 16.7283 34.514 17.3812 33.9984L16.6064 33.0174C16.2137 33.3276 15.6932 33.5123 14.8342 33.6094C13.9637 33.7078 12.8307 33.7087 11.25 33.7087V34.9587ZM16.9895 32.657C16.8736 32.787 16.7455 32.9077 16.6064 33.0174L17.3812 33.9984C17.5766 33.8441 17.7577 33.6737 17.9225 33.4888L16.9895 32.657ZM2.29166 27.667C2.29166 26.1765 2.29285 25.1179 2.39631 24.3067C2.49756 23.5127 2.68832 23.0384 3.01051 22.677L2.07747 21.8452C1.52233 22.4678 1.27442 23.2226 1.15634 24.1485C1.04047 25.0573 1.04166 26.2096 1.04166 27.667H2.29166ZM2.61885 21.3356C2.42342 21.4899 2.24222 21.6604 2.07747 21.8452L3.01051 22.677C3.12641 22.547 3.25453 22.4263 3.39357 22.3166L2.61885 21.3356ZM18.9583 27.667C18.9583 27.451 18.9587 27.2396 18.9583 27.0371L17.7083 27.0393C17.7087 27.2404 17.7083 27.448 17.7083 27.667H18.9583ZM7.54777 20.3775C6.37481 20.3841 5.42008 20.4111 4.63797 20.5345C3.84417 20.6598 3.18217 20.8907 2.61885 21.3356L3.39357 22.3166C3.73296 22.0485 4.16769 21.8742 4.83284 21.7693C5.50969 21.6624 6.37615 21.6341 7.55484 21.6274L7.54777 20.3775Z" fill="black"/>
<path d="M8.33334 31H9.58334" stroke="black" stroke-width="1.5" stroke-miterlimit="10" stroke-linecap="round" stroke-linejoin="round"/>
<path d="M12.0833 31H15" stroke="black" stroke-width="1.5" stroke-miterlimit="10" stroke-linecap="round" stroke-linejoin="round"/>
<path d="M2.08334 25.1667H8.33334" stroke="black" stroke-width="1.5" stroke-linecap="round" stroke-linejoin="round"/>
<path d="M33.068 21.2C33.5813 21.2 34.0433 21.326 34.454 21.578C34.8647 21.83 35.1867 22.1753 35.42 22.614C35.6627 23.0527 35.784 23.552 35.784 24.112C35.784 24.6627 35.6627 25.162 35.42 25.61C35.1867 26.058 34.8647 26.4127 34.454 26.674C34.0433 26.9353 33.5813 27.066 33.068 27.066H30.226L30.324 26.898V30.426C30.324 30.5847 30.2727 30.72 30.17 30.832C30.0673 30.944 29.9367 31 29.778 31C29.61 31 29.4747 30.944 29.372 30.832C29.2787 30.72 29.232 30.5847 29.232 30.426V21.76C29.232 21.6013 29.2833 21.4707 29.386 21.368C29.498 21.256 29.6333 21.2 29.792 21.2H33.068ZM33.068 25.988C33.376 25.988 33.6467 25.904 33.88 25.736C34.1133 25.568 34.3 25.3393 34.44 25.05C34.58 24.7607 34.65 24.448 34.65 24.112C34.65 23.7573 34.58 23.4447 34.44 23.174C34.3 22.9033 34.1133 22.6887 33.88 22.53C33.6467 22.362 33.376 22.278 33.068 22.278H30.226L30.324 22.124V26.128L30.226 25.988H33.068ZM37.9769 31C37.8182 31 37.6829 30.944 37.5709 30.832C37.4682 30.72 37.4169 30.5847 37.4169 30.426V24.322C37.4169 24.1633 37.4682 24.0327 37.5709 23.93C37.6829 23.818 37.8182 23.762 37.9769 23.762C38.1449 23.762 38.2802 23.818 38.3829 23.93C38.4855 24.0327 38.5369 24.1633 38.5369 24.322V26.17L38.3689 25.876C38.4249 25.5867 38.5229 25.3067 38.6629 25.036C38.8122 24.756 38.9989 24.5087 39.2229 24.294C39.4469 24.07 39.7035 23.8973 39.9929 23.776C40.2822 23.6453 40.5995 23.58 40.9449 23.58C41.1502 23.58 41.3369 23.6313 41.5049 23.734C41.6822 23.8273 41.7709 23.9627 41.7709 24.14C41.7709 24.336 41.7195 24.4807 41.6169 24.574C41.5142 24.6673 41.3975 24.714 41.2669 24.714C41.1455 24.714 41.0289 24.6907 40.9169 24.644C40.8049 24.588 40.6649 24.56 40.4969 24.56C40.2635 24.56 40.0302 24.6253 39.7969 24.756C39.5729 24.8773 39.3629 25.0547 39.1669 25.288C38.9802 25.5213 38.8262 25.7873 38.7049 26.086C38.5929 26.3753 38.5369 26.688 38.5369 27.024V30.426C38.5369 30.5847 38.4809 30.72 38.3689 30.832C38.2662 30.944 38.1355 31 37.9769 31ZM44.114 30.426C44.114 30.5847 44.058 30.72 43.946 30.832C43.8433 30.944 43.7127 31 43.554 31C43.386 31 43.2507 30.944 43.148 30.832C43.0453 30.72 42.994 30.5847 42.994 30.426V24.21C42.994 24.0513 43.0453 23.9207 43.148 23.818C43.26 23.706 43.3953 23.65 43.554 23.65C43.7127 23.65 43.8433 23.706 43.946 23.818C44.058 23.9207 44.114 24.0513 44.114 24.21V30.426ZM43.554 22.712C43.3207 22.712 43.148 22.6653 43.036 22.572C42.924 22.4787 42.868 22.334 42.868 22.138V21.942C42.868 21.746 42.9287 21.6013 43.05 21.508C43.1713 21.4147 43.344 21.368 43.568 21.368C43.792 21.368 43.96 21.4147 44.072 21.508C44.184 21.6013 44.24 21.746 44.24 21.942V22.138C44.24 22.334 44.1793 22.4787 44.058 22.572C43.946 22.6653 43.778 22.712 43.554 22.712ZM46.1258 23.636C46.2378 23.636 46.3452 23.6687 46.4478 23.734C46.5505 23.79 46.6252 23.874 46.6718 23.986L48.9958 29.446L48.7718 29.558L51.1378 24C51.2405 23.748 51.4132 23.6267 51.6558 23.636C51.7958 23.636 51.9172 23.6827 52.0198 23.776C52.1225 23.8693 52.1738 23.986 52.1738 24.126C52.1738 24.182 52.1645 24.238 52.1458 24.294C52.1365 24.3407 52.1225 24.3827 52.1038 24.42L49.4018 30.636C49.2992 30.8693 49.1358 30.9907 48.9118 31C48.7905 31.0093 48.6738 30.986 48.5618 30.93C48.4592 30.8647 48.3845 30.7667 48.3378 30.636L45.6358 24.434C45.6172 24.3967 45.5985 24.3547 45.5798 24.308C45.5705 24.2613 45.5658 24.2053 45.5658 24.14C45.5658 24.0187 45.6125 23.9067 45.7058 23.804C45.8085 23.692 45.9485 23.636 46.1258 23.636ZM59.623 23.692C59.7817 23.692 59.9124 23.748 60.015 23.86C60.127 23.9627 60.183 24.0933 60.183 24.252V30.426C60.183 30.5847 60.127 30.72 60.015 30.832C59.9124 30.944 59.7817 31 59.623 31C59.455 31 59.3197 30.944 59.217 30.832C59.1144 30.72 59.063 30.5847 59.063 30.426V29.096L59.329 29.068C59.329 29.2733 59.259 29.4973 59.119 29.74C58.979 29.9827 58.7877 30.2113 58.545 30.426C58.3024 30.6313 58.013 30.804 57.677 30.944C57.3504 31.0747 56.9957 31.14 56.613 31.14C55.9784 31.14 55.409 30.9767 54.905 30.65C54.401 30.314 53.9997 29.8613 53.701 29.292C53.4117 28.7227 53.267 28.074 53.267 27.346C53.267 26.6087 53.4117 25.96 53.701 25.4C53.9997 24.8307 54.401 24.3873 54.905 24.07C55.409 23.7433 55.969 23.58 56.585 23.58C56.9864 23.58 57.3597 23.6453 57.705 23.776C58.0504 23.9067 58.349 24.084 58.601 24.308C58.8624 24.532 59.063 24.7793 59.203 25.05C59.3524 25.3207 59.427 25.5913 59.427 25.862L59.063 25.778V24.252C59.063 24.0933 59.1144 23.9627 59.217 23.86C59.3197 23.748 59.455 23.692 59.623 23.692ZM56.739 30.104C57.2057 30.104 57.6164 29.9827 57.971 29.74C58.335 29.4973 58.615 29.1707 58.811 28.76C59.0164 28.34 59.119 27.8687 59.119 27.346C59.119 26.8327 59.0164 26.3707 58.811 25.96C58.615 25.54 58.335 25.2133 57.971 24.98C57.6164 24.7373 57.2057 24.616 56.739 24.616C56.2817 24.616 55.871 24.7327 55.507 24.966C55.1524 25.1993 54.8724 25.5213 54.667 25.932C54.4617 26.3427 54.359 26.814 54.359 27.346C54.359 27.8687 54.457 28.34 54.653 28.76C54.8584 29.1707 55.1384 29.4973 55.493 29.74C55.857 29.9827 56.2724 30.104 56.739 30.104ZM65.4787 23.58C65.9547 23.58 66.384 23.6313 66.7667 23.734C67.1493 23.8367 67.4527 23.9767 67.6767 24.154C67.9007 24.3313 68.0127 24.532 68.0127 24.756C68.0127 24.8773 67.9707 24.994 67.8867 25.106C67.8027 25.218 67.6907 25.274 67.5507 25.274C67.42 25.274 67.3127 25.2507 67.2287 25.204C67.154 25.1573 67.0793 25.0967 67.0047 25.022C66.9393 24.9473 66.846 24.882 66.7247 24.826C66.6127 24.7607 66.4493 24.7093 66.2347 24.672C66.02 24.6347 65.8053 24.616 65.5907 24.616C65.0773 24.616 64.6247 24.7373 64.2327 24.98C63.85 25.2227 63.5467 25.5493 63.3227 25.96C63.0987 26.3707 62.9867 26.8373 62.9867 27.36C62.9867 27.8827 63.094 28.3493 63.3087 28.76C63.5233 29.1707 63.822 29.4973 64.2047 29.74C64.5873 29.9827 65.0307 30.104 65.5347 30.104C65.8613 30.104 66.1227 30.076 66.3187 30.02C66.5147 29.964 66.678 29.8987 66.8087 29.824C66.9767 29.7307 67.1027 29.6373 67.1867 29.544C67.28 29.4507 67.4013 29.404 67.5507 29.404C67.7093 29.404 67.8307 29.4553 67.9147 29.558C68.008 29.6607 68.0547 29.7867 68.0547 29.936C68.0547 30.104 67.938 30.2813 67.7047 30.468C67.4713 30.6547 67.154 30.8133 66.7527 30.944C66.3607 31.0747 65.9127 31.14 65.4087 31.14C64.6993 31.14 64.0787 30.9767 63.5467 30.65C63.0147 30.314 62.5993 29.8613 62.3007 29.292C62.0113 28.7133 61.8667 28.0693 61.8667 27.36C61.8667 26.6507 62.016 26.0113 62.3147 25.442C62.6227 24.8727 63.0473 24.42 63.5887 24.084C64.13 23.748 64.76 23.58 65.4787 23.58ZM74.9364 23.65C75.0951 23.65 75.2258 23.706 75.3284 23.818C75.4404 23.9207 75.4964 24.0513 75.4964 24.21V30.314C75.4964 31.098 75.3424 31.7467 75.0344 32.26C74.7264 32.7827 74.3111 33.17 73.7884 33.422C73.2751 33.674 72.6918 33.8 72.0384 33.8C71.6744 33.8 71.3244 33.7627 70.9884 33.688C70.6524 33.6133 70.3771 33.5153 70.1624 33.394C69.9851 33.31 69.8591 33.2027 69.7844 33.072C69.7191 32.9507 69.7098 32.82 69.7564 32.68C69.8218 32.512 69.9151 32.3953 70.0364 32.33C70.1671 32.2647 70.3024 32.2647 70.4424 32.33C70.5918 32.3953 70.8064 32.484 71.0864 32.596C71.3758 32.7173 71.6978 32.778 72.0524 32.778C72.5378 32.778 72.9531 32.6847 73.2984 32.498C73.6438 32.3113 73.9098 32.036 74.0964 31.672C74.2831 31.3173 74.3764 30.874 74.3764 30.342V29.348L74.5444 29.698C74.3951 29.9873 74.1944 30.2393 73.9424 30.454C73.6904 30.6687 73.4011 30.8367 73.0744 30.958C72.7478 31.0793 72.3884 31.14 71.9964 31.14C71.4644 31.14 71.0118 31.028 70.6384 30.804C70.2744 30.5707 69.9944 30.2533 69.7984 29.852C69.6118 29.4413 69.5184 28.97 69.5184 28.438V24.21C69.5184 24.0513 69.5698 23.9207 69.6724 23.818C69.7844 23.706 69.9198 23.65 70.0784 23.65C70.2464 23.65 70.3818 23.706 70.4844 23.818C70.5871 23.9207 70.6384 24.0513 70.6384 24.21V28.186C70.6384 28.8207 70.7784 29.3013 71.0584 29.628C71.3384 29.9453 71.7724 30.104 72.3604 30.104C72.7338 30.104 73.0698 30.02 73.3684 29.852C73.6764 29.684 73.9191 29.4553 74.0964 29.166C74.2831 28.8673 74.3764 28.5407 74.3764 28.186V24.21C74.3764 24.0513 74.4278 23.9207 74.5304 23.818C74.6331 23.706 74.7684 23.65 74.9364 23.65ZM85.4586 21.2C85.972 21.2 86.434 21.326 86.8446 21.578C87.2553 21.83 87.5773 22.1753 87.8106 22.614C88.0533 23.0527 88.1746 23.552 88.1746 24.112C88.1746 24.6627 88.0533 25.162 87.8106 25.61C87.5773 26.058 87.2553 26.4127 86.8446 26.674C86.434 26.9353 85.972 27.066 85.4586 27.066H82.6166L82.7146 26.898V30.426C82.7146 30.5847 82.6633 30.72 82.5606 30.832C82.458 30.944 82.3273 31 82.1686 31C82.0006 31 81.8653 30.944 81.7626 30.832C81.6693 30.72 81.6226 30.5847 81.6226 30.426V21.76C81.6226 21.6013 81.674 21.4707 81.7766 21.368C81.8886 21.256 82.024 21.2 82.1826 21.2H85.4586ZM85.4586 25.988C85.7666 25.988 86.0373 25.904 86.2706 25.736C86.504 25.568 86.6906 25.3393 86.8306 25.05C86.9706 24.7607 87.0406 24.448 87.0406 24.112C87.0406 23.7573 86.9706 23.4447 86.8306 23.174C86.6906 22.9033 86.504 22.6887 86.2706 22.53C86.0373 22.362 85.7666 22.278 85.4586 22.278H82.6166L82.7146 22.124V26.128L82.6166 25.988H85.4586ZM96.5448 27.36C96.5448 28.088 96.3814 28.7367 96.0548 29.306C95.7374 29.8753 95.3034 30.3233 94.7528 30.65C94.2114 30.9767 93.6001 31.14 92.9188 31.14C92.2374 31.14 91.6214 30.9767 91.0708 30.65C90.5201 30.3233 90.0814 29.8753 89.7548 29.306C89.4374 28.7367 89.2788 28.088 89.2788 27.36C89.2788 26.632 89.4374 25.9833 89.7548 25.414C90.0814 24.8447 90.5201 24.3967 91.0708 24.07C91.6214 23.7433 92.2374 23.58 92.9188 23.58C93.6001 23.58 94.2114 23.7433 94.7528 24.07C95.3034 24.3967 95.7374 24.8447 96.0548 25.414C96.3814 25.9833 96.5448 26.632 96.5448 27.36ZM95.4248 27.36C95.4248 26.8187 95.3128 26.3427 95.0888 25.932C94.8741 25.5213 94.5754 25.1993 94.1928 24.966C93.8194 24.7327 93.3948 24.616 92.9188 24.616C92.4428 24.616 92.0134 24.7327 91.6308 24.966C91.2574 25.1993 90.9588 25.5213 90.7348 25.932C90.5108 26.3427 90.3988 26.8187 90.3988 27.36C90.3988 27.892 90.5108 28.3633 90.7348 28.774C90.9588 29.1847 91.2574 29.5113 91.6308 29.754C92.0134 29.9873 92.4428 30.104 92.9188 30.104C93.3948 30.104 93.8194 29.9873 94.1928 29.754C94.5754 29.5113 94.8741 29.1847 95.0888 28.774C95.3128 28.3633 95.4248 27.892 95.4248 27.36ZM99.4614 30.426C99.4614 30.5847 99.4054 30.72 99.2934 30.832C99.1814 30.944 99.046 31 98.8874 31C98.7287 31 98.598 30.944 98.4954 30.832C98.3927 30.72 98.3414 30.5847 98.3414 30.426V21.2C98.3414 21.0413 98.3927 20.9107 98.4954 20.808C98.6074 20.696 98.7427 20.64 98.9014 20.64C99.0694 20.64 99.2047 20.696 99.3074 20.808C99.41 20.9107 99.4614 21.0413 99.4614 21.2V30.426ZM102.712 30.426C102.712 30.5847 102.656 30.72 102.544 30.832C102.441 30.944 102.31 31 102.152 31C101.984 31 101.848 30.944 101.746 30.832C101.643 30.72 101.592 30.5847 101.592 30.426V24.21C101.592 24.0513 101.643 23.9207 101.746 23.818C101.858 23.706 101.993 23.65 102.152 23.65C102.31 23.65 102.441 23.706 102.544 23.818C102.656 23.9207 102.712 24.0513 102.712 24.21V30.426ZM102.152 22.712C101.918 22.712 101.746 22.6653 101.634 22.572C101.522 22.4787 101.466 22.334 101.466 22.138V21.942C101.466 21.746 101.526 21.6013 101.648 21.508C101.769 21.4147 101.942 21.368 102.166 21.368C102.39 21.368 102.558 21.4147 102.67 21.508C102.782 21.6013 102.838 21.746 102.838 21.942V22.138C102.838 22.334 102.777 22.4787 102.656 22.572C102.544 22.6653 102.376 22.712 102.152 22.712ZM107.944 23.58C108.42 23.58 108.849 23.6313 109.232 23.734C109.614 23.8367 109.918 23.9767 110.142 24.154C110.366 24.3313 110.478 24.532 110.478 24.756C110.478 24.8773 110.436 24.994 110.352 25.106C110.268 25.218 110.156 25.274 110.016 25.274C109.885 25.274 109.778 25.2507 109.694 25.204C109.619 25.1573 109.544 25.0967 109.47 25.022C109.404 24.9473 109.311 24.882 109.19 24.826C109.078 24.7607 108.914 24.7093 108.7 24.672C108.485 24.6347 108.27 24.616 108.056 24.616C107.542 24.616 107.09 24.7373 106.698 24.98C106.315 25.2227 106.012 25.5493 105.788 25.96C105.564 26.3707 105.452 26.8373 105.452 27.36C105.452 27.8827 105.559 28.3493 105.774 28.76C105.988 29.1707 106.287 29.4973 106.67 29.74C107.052 29.9827 107.496 30.104 108 30.104C108.326 30.104 108.588 30.076 108.784 30.02C108.98 29.964 109.143 29.8987 109.274 29.824C109.442 29.7307 109.568 29.6373 109.652 29.544C109.745 29.4507 109.866 29.404 110.016 29.404C110.174 29.404 110.296 29.4553 110.38 29.558C110.473 29.6607 110.52 29.7867 110.52 29.936C110.52 30.104 110.403 30.2813 110.17 30.468C109.936 30.6547 109.619 30.8133 109.218 30.944C108.826 31.0747 108.378 31.14 107.874 31.14C107.164 31.14 106.544 30.9767 106.012 30.65C105.48 30.314 105.064 29.8613 104.766 29.292C104.476 28.7133 104.332 28.0693 104.332 27.36C104.332 26.6507 104.481 26.0113 104.78 25.442C105.088 24.8727 105.512 24.42 106.054 24.084C106.595 23.748 107.225 23.58 107.944 23.58ZM117.401 23.65C117.56 23.65 117.691 23.706 117.793 23.818C117.905 23.9207 117.961 24.0513 117.961 24.21V30.314C117.961 31.098 117.807 31.7467 117.499 32.26C117.191 32.7827 116.776 33.17 116.253 33.422C115.74 33.674 115.157 33.8 114.503 33.8C114.139 33.8 113.789 33.7627 113.453 33.688C113.117 33.6133 112.842 33.5153 112.627 33.394C112.45 33.31 112.324 33.2027 112.249 33.072C112.184 32.9507 112.175 32.82 112.221 32.68C112.287 32.512 112.38 32.3953 112.501 32.33C112.632 32.2647 112.767 32.2647 112.907 32.33C113.057 32.3953 113.271 32.484 113.551 32.596C113.841 32.7173 114.163 32.778 114.517 32.778C115.003 32.778 115.418 32.6847 115.763 32.498C116.109 32.3113 116.375 32.036 116.561 31.672C116.748 31.3173 116.841 30.874 116.841 30.342V29.348L117.009 29.698C116.86 29.9873 116.659 30.2393 116.407 30.454C116.155 30.6687 115.866 30.8367 115.539 30.958C115.213 31.0793 114.853 31.14 114.461 31.14C113.929 31.14 113.477 31.028 113.103 30.804C112.739 30.5707 112.459 30.2533 112.263 29.852C112.077 29.4413 111.983 28.97 111.983 28.438V24.21C111.983 24.0513 112.035 23.9207 112.137 23.818C112.249 23.706 112.385 23.65 112.543 23.65C112.711 23.65 112.847 23.706 112.949 23.818C113.052 23.9207 113.103 24.0513 113.103 24.21V28.186C113.103 28.8207 113.243 29.3013 113.523 29.628C113.803 29.9453 114.237 30.104 114.825 30.104C115.199 30.104 115.535 30.02 115.833 29.852C116.141 29.684 116.384 29.4553 116.561 29.166C116.748 28.8673 116.841 28.5407 116.841 28.186V24.21C116.841 24.0513 116.893 23.9207 116.995 23.818C117.098 23.706 117.233 23.65 117.401 23.65Z" fill="#1D1615"/>
</svg>
