<svg width="311" height="52" viewBox="0 0 311 52" fill="none" xmlns="http://www.w3.org/2000/svg">
<mask id="path-1-inside-1_73_4541" fill="white">
<path d="M0 0H311V52H0V0Z"/>
</mask>
<path d="M0 1H311V-1H0V1ZM311 51H0V53H311V51Z" fill="#E8E8E8" mask="url(#path-1-inside-1_73_4541)"/>
<path d="M12.5 22.2499C12.5 22.2499 12.9167 22.2499 13.3333 23.0833C13.3333 23.0833 14.6568 20.9999 15.8333 20.5833" stroke="black" stroke-width="1.5" stroke-linecap="round" stroke-linejoin="round"/>
<path d="M18.3333 21.8334C18.3333 24.1346 16.4678 26.0001 14.1667 26.0001C11.8655 26.0001 10 24.1346 10 21.8334C10 19.5322 11.8655 17.6667 14.1667 17.6667C16.4678 17.6667 18.3333 19.5322 18.3333 21.8334Z" stroke="black" stroke-width="1.5" stroke-linecap="round"/>
<path d="M18.9583 27.0371C18.9577 26.6918 18.6774 26.4125 18.3322 26.4132C17.9871 26.4138 17.7077 26.6941 17.7083 27.0393L18.9583 27.0371ZM7.55484 21.6274C7.90002 21.6255 8.17825 21.3441 8.1763 20.9989C8.17434 20.6537 7.89294 20.3755 7.54777 20.3775L7.55484 21.6274ZM11.25 33.7087H8.74999V34.9587H11.25V33.7087ZM8.74999 33.7087C7.16925 33.7087 6.03627 33.7078 5.16578 33.6094C4.30679 33.5123 3.78632 33.3276 3.39357 33.0174L2.61885 33.9984C3.27166 34.514 4.05701 34.7421 5.02547 34.8515C5.98246 34.9596 7.19859 34.9587 8.74999 34.9587V33.7087ZM1.04166 27.667C1.04166 29.1244 1.04047 30.2768 1.15634 31.1855C1.27442 32.1114 1.52233 32.8662 2.07747 33.4888L3.01051 32.657C2.68832 32.2956 2.49756 31.8213 2.39631 31.0273C2.29285 30.2161 2.29166 29.1575 2.29166 27.667H1.04166ZM3.39357 33.0174C3.25453 32.9077 3.12641 32.787 3.01051 32.657L2.07747 33.4888C2.24222 33.6737 2.42342 33.8441 2.61885 33.9984L3.39357 33.0174ZM17.7083 27.667C17.7083 29.1575 17.7072 30.2161 17.6037 31.0273C17.5024 31.8213 17.3117 32.2956 16.9895 32.657L17.9225 33.4888C18.4777 32.8662 18.7256 32.1114 18.8437 31.1855C18.9595 30.2768 18.9583 29.1244 18.9583 27.667H17.7083ZM11.25 34.9587C12.8014 34.9587 14.0175 34.9596 14.9745 34.8515C15.943 34.7421 16.7283 34.514 17.3812 33.9984L16.6064 33.0174C16.2137 33.3276 15.6932 33.5123 14.8342 33.6094C13.9637 33.7078 12.8307 33.7087 11.25 33.7087V34.9587ZM16.9895 32.657C16.8736 32.787 16.7455 32.9077 16.6064 33.0174L17.3812 33.9984C17.5766 33.8441 17.7577 33.6737 17.9225 33.4888L16.9895 32.657ZM2.29166 27.667C2.29166 26.1765 2.29285 25.1179 2.39631 24.3067C2.49756 23.5127 2.68832 23.0384 3.01051 22.677L2.07747 21.8452C1.52233 22.4678 1.27442 23.2226 1.15634 24.1485C1.04047 25.0573 1.04166 26.2096 1.04166 27.667H2.29166ZM2.61885 21.3356C2.42342 21.4899 2.24222 21.6604 2.07747 21.8452L3.01051 22.677C3.12641 22.547 3.25453 22.4263 3.39357 22.3166L2.61885 21.3356ZM18.9583 27.667C18.9583 27.451 18.9587 27.2396 18.9583 27.0371L17.7083 27.0393C17.7087 27.2404 17.7083 27.448 17.7083 27.667H18.9583ZM7.54777 20.3775C6.37481 20.3841 5.42008 20.4111 4.63797 20.5345C3.84417 20.6598 3.18217 20.8907 2.61885 21.3356L3.39357 22.3166C3.73296 22.0485 4.16769 21.8742 4.83284 21.7693C5.50969 21.6624 6.37615 21.6341 7.55484 21.6274L7.54777 20.3775Z" fill="black"/>
<path d="M8.33334 31H9.58334" stroke="black" stroke-width="1.5" stroke-miterlimit="10" stroke-linecap="round" stroke-linejoin="round"/>
<path d="M12.0833 31H15" stroke="black" stroke-width="1.5" stroke-miterlimit="10" stroke-linecap="round" stroke-linejoin="round"/>
<path d="M2.08334 25.1667H8.33334" stroke="black" stroke-width="1.5" stroke-linecap="round" stroke-linejoin="round"/>
<path d="M32.27 31C32.102 31 31.962 30.944 31.85 30.832C31.738 30.72 31.682 30.5847 31.682 30.426V21.774H32.872V30.426C32.872 30.5847 32.816 30.72 32.704 30.832C32.592 30.944 32.4473 31 32.27 31ZM29.022 22.264C28.8633 22.264 28.728 22.2173 28.616 22.124C28.5133 22.0213 28.462 21.8907 28.462 21.732C28.462 21.5733 28.5133 21.4473 28.616 21.354C28.728 21.2513 28.8633 21.2 29.022 21.2H35.532C35.6907 21.2 35.826 21.2513 35.938 21.354C36.05 21.4473 36.106 21.5733 36.106 21.732C36.106 21.9 36.05 22.0307 35.938 22.124C35.826 22.2173 35.6907 22.264 35.532 22.264H29.022ZM39.259 31.14C38.5123 31.14 37.859 30.9813 37.299 30.664C36.739 30.3467 36.3003 29.9127 35.983 29.362C35.675 28.802 35.521 28.158 35.521 27.43C35.521 26.618 35.6796 25.9273 35.997 25.358C36.3236 24.7793 36.7436 24.3407 37.257 24.042C37.7796 23.734 38.3303 23.58 38.909 23.58C39.3383 23.58 39.7536 23.6593 40.155 23.818C40.5563 23.9767 40.911 24.21 41.219 24.518C41.527 24.8167 41.7743 25.1807 41.961 25.61C42.1476 26.03 42.2456 26.5013 42.255 27.024C42.255 27.1733 42.199 27.2993 42.087 27.402C41.975 27.5047 41.8443 27.556 41.695 27.556H36.165L35.913 26.59H41.303L41.079 26.786V26.478C41.0416 26.0953 40.911 25.7687 40.687 25.498C40.4723 25.218 40.2063 25.0033 39.889 24.854C39.581 24.7047 39.2543 24.63 38.909 24.63C38.629 24.63 38.349 24.6813 38.069 24.784C37.7983 24.8773 37.551 25.036 37.327 25.26C37.1123 25.4747 36.935 25.7547 36.795 26.1C36.6643 26.4453 36.599 26.8607 36.599 27.346C36.599 27.8873 36.7063 28.3633 36.921 28.774C37.145 29.1847 37.453 29.5113 37.845 29.754C38.237 29.9873 38.6943 30.104 39.217 30.104C39.5436 30.104 39.8283 30.062 40.071 29.978C40.3136 29.894 40.5236 29.7913 40.701 29.67C40.8783 29.5393 41.0276 29.4087 41.149 29.278C41.2703 29.194 41.387 29.152 41.499 29.152C41.639 29.152 41.751 29.1987 41.835 29.292C41.9283 29.3853 41.975 29.4973 41.975 29.628C41.975 29.7867 41.9003 29.9267 41.751 30.048C41.4896 30.3373 41.135 30.594 40.687 30.818C40.239 31.0327 39.763 31.14 39.259 31.14ZM44.4983 31C44.3397 31 44.2043 30.944 44.0923 30.832C43.9897 30.72 43.9383 30.5847 43.9383 30.426V24.322C43.9383 24.1633 43.9897 24.0327 44.0923 23.93C44.2043 23.818 44.3397 23.762 44.4983 23.762C44.6663 23.762 44.8017 23.818 44.9043 23.93C45.007 24.0327 45.0583 24.1633 45.0583 24.322V26.17L44.8903 25.876C44.9463 25.5867 45.0443 25.3067 45.1843 25.036C45.3337 24.756 45.5203 24.5087 45.7443 24.294C45.9683 24.07 46.225 23.8973 46.5143 23.776C46.8037 23.6453 47.121 23.58 47.4663 23.58C47.6717 23.58 47.8583 23.6313 48.0263 23.734C48.2037 23.8273 48.2923 23.9627 48.2923 24.14C48.2923 24.336 48.241 24.4807 48.1383 24.574C48.0357 24.6673 47.919 24.714 47.7883 24.714C47.667 24.714 47.5503 24.6907 47.4383 24.644C47.3263 24.588 47.1863 24.56 47.0183 24.56C46.785 24.56 46.5517 24.6253 46.3183 24.756C46.0943 24.8773 45.8843 25.0547 45.6883 25.288C45.5017 25.5213 45.3477 25.7873 45.2263 26.086C45.1143 26.3753 45.0583 26.688 45.0583 27.024V30.426C45.0583 30.5847 45.0023 30.72 44.8903 30.832C44.7877 30.944 44.657 31 44.4983 31ZM53.0155 23.65C53.6502 23.65 54.1635 23.8133 54.5555 24.14C54.9568 24.4573 55.2228 24.91 55.3535 25.498H55.1435L55.2415 25.246C55.3535 24.9847 55.5448 24.7327 55.8155 24.49C56.0862 24.2473 56.3988 24.0467 56.7535 23.888C57.1082 23.7293 57.4768 23.65 57.8595 23.65C58.4755 23.65 58.9608 23.7853 59.3155 24.056C59.6702 24.3173 59.9222 24.672 60.0715 25.12C60.2302 25.5587 60.3095 26.0533 60.3095 26.604V30.426C60.3095 30.5847 60.2535 30.72 60.1415 30.832C60.0388 30.944 59.9082 31 59.7495 31C59.5815 31 59.4462 30.944 59.3435 30.832C59.2408 30.72 59.1895 30.5847 59.1895 30.426V26.632C59.1895 26.268 59.1335 25.9413 59.0215 25.652C58.9188 25.3533 58.7462 25.12 58.5035 24.952C58.2702 24.7747 57.9482 24.686 57.5375 24.686C57.1548 24.686 56.8048 24.7747 56.4875 24.952C56.1702 25.12 55.9182 25.3533 55.7315 25.652C55.5448 25.9413 55.4515 26.268 55.4515 26.632V30.426C55.4515 30.5847 55.4002 30.72 55.2975 30.832C55.1948 30.944 55.0595 31 54.8915 31C54.7328 31 54.5975 30.944 54.4855 30.832C54.3828 30.72 54.3315 30.5847 54.3315 30.426V26.59C54.3315 26.2353 54.2802 25.918 54.1775 25.638C54.0842 25.3487 53.9208 25.12 53.6875 24.952C53.4542 24.7747 53.1322 24.686 52.7215 24.686C52.3482 24.686 52.0075 24.7747 51.6995 24.952C51.3915 25.12 51.1442 25.3487 50.9575 25.638C50.7708 25.918 50.6775 26.2353 50.6775 26.59V30.426C50.6775 30.5847 50.6215 30.72 50.5095 30.832C50.4068 30.944 50.2762 31 50.1175 31C49.9588 31 49.8235 30.944 49.7115 30.832C49.6088 30.72 49.5575 30.5847 49.5575 30.426V24.322C49.5575 24.1633 49.6088 24.0327 49.7115 23.93C49.8235 23.818 49.9588 23.762 50.1175 23.762C50.2855 23.762 50.4208 23.818 50.5235 23.93C50.6262 24.0327 50.6775 24.1633 50.6775 24.322V25.386L50.3695 25.722C50.4068 25.4793 50.5002 25.2367 50.6495 24.994C50.8082 24.7513 51.0088 24.5273 51.2515 24.322C51.4942 24.1167 51.7648 23.9533 52.0635 23.832C52.3622 23.7107 52.6795 23.65 53.0155 23.65ZM61.9757 29.852C61.8917 29.7307 61.8544 29.6047 61.8637 29.474C61.873 29.334 61.9524 29.2127 62.1017 29.11C62.195 29.0447 62.3024 29.0167 62.4237 29.026C62.5544 29.0353 62.671 29.096 62.7737 29.208C63.035 29.516 63.3337 29.7633 63.6697 29.95C64.0057 30.1273 64.4164 30.216 64.9017 30.216C65.1257 30.2067 65.3497 30.1693 65.5737 30.104C65.7977 30.0387 65.9844 29.9267 66.1337 29.768C66.2924 29.6 66.3717 29.3807 66.3717 29.11C66.3717 28.8487 66.2924 28.6433 66.1337 28.494C65.975 28.3353 65.7697 28.2093 65.5177 28.116C65.2657 28.0133 64.9904 27.9247 64.6917 27.85C64.3837 27.766 64.0804 27.6727 63.7817 27.57C63.483 27.458 63.2124 27.3227 62.9697 27.164C62.7364 26.996 62.545 26.7907 62.3957 26.548C62.2557 26.296 62.1857 25.9927 62.1857 25.638C62.1857 25.218 62.2977 24.854 62.5217 24.546C62.755 24.238 63.063 24 63.4457 23.832C63.8377 23.664 64.2624 23.58 64.7197 23.58C64.981 23.58 65.2517 23.6127 65.5317 23.678C65.821 23.734 66.101 23.8367 66.3717 23.986C66.6424 24.126 66.8804 24.322 67.0857 24.574C67.1697 24.6673 67.2164 24.784 67.2257 24.924C67.235 25.064 67.1744 25.19 67.0437 25.302C66.941 25.3767 66.8244 25.4093 66.6937 25.4C66.5724 25.3907 66.4697 25.344 66.3857 25.26C66.1897 25.0267 65.9424 24.8493 65.6437 24.728C65.3544 24.5973 65.0324 24.532 64.6777 24.532C64.4537 24.532 64.2344 24.5647 64.0197 24.63C63.805 24.6953 63.623 24.8073 63.4737 24.966C63.3337 25.1153 63.2637 25.3253 63.2637 25.596C63.273 25.848 63.357 26.0533 63.5157 26.212C63.6744 26.3707 63.889 26.5013 64.1597 26.604C64.4304 26.6973 64.729 26.7907 65.0557 26.884C65.3544 26.9587 65.639 27.0473 65.9097 27.15C66.1897 27.2433 66.4417 27.3693 66.6657 27.528C66.8897 27.6867 67.067 27.892 67.1977 28.144C67.3284 28.3867 67.3937 28.6947 67.3937 29.068C67.3937 29.4973 67.2724 29.8707 67.0297 30.188C66.787 30.496 66.465 30.734 66.0637 30.902C65.6717 31.0607 65.247 31.14 64.7897 31.14C64.2764 31.14 63.7677 31.042 63.2637 30.846C62.769 30.65 62.3397 30.3187 61.9757 29.852ZM75.668 31.14C75.0054 31.14 74.4174 30.9907 73.904 30.692C73.3907 30.384 72.9847 29.992 72.686 29.516C72.3967 29.0307 72.252 28.522 72.252 27.99C72.252 27.5607 72.3314 27.1547 72.49 26.772C72.658 26.3893 72.9054 26.0487 73.232 25.75C73.568 25.442 73.9927 25.1947 74.506 25.008L75.276 25.792C74.576 25.9413 74.086 26.2027 73.806 26.576C73.5354 26.94 73.4 27.3553 73.4 27.822C73.4 28.1953 73.4887 28.5547 73.666 28.9C73.8434 29.2453 74.114 29.5253 74.478 29.74C74.8514 29.9547 75.3134 30.062 75.864 30.062C76.4147 30.062 76.8954 29.964 77.306 29.768C77.7167 29.572 78.062 29.306 78.342 28.97C78.622 28.634 78.8507 28.2607 79.028 27.85C79.2054 27.4393 79.3267 27.024 79.392 26.604C79.4107 26.492 79.4574 26.4033 79.532 26.338C79.6067 26.2727 79.7234 26.24 79.882 26.24C80.0407 26.24 80.1667 26.3053 80.26 26.436C80.3627 26.5667 80.4 26.7207 80.372 26.898C80.2974 27.4207 80.1434 27.934 79.91 28.438C79.6767 28.942 79.3687 29.3993 78.986 29.81C78.6034 30.2113 78.1367 30.5333 77.586 30.776C77.0354 31.0187 76.396 31.14 75.668 31.14ZM80.652 30.986C80.5774 30.986 80.512 30.9767 80.456 30.958C80.4094 30.93 80.3674 30.9067 80.33 30.888C79.7234 30.3933 79.1494 29.9267 78.608 29.488C78.076 29.0493 77.558 28.5967 77.054 28.13C76.55 27.654 76.0414 27.122 75.528 26.534C75.2014 26.1607 74.9027 25.806 74.632 25.47C74.3707 25.134 74.1607 24.8027 74.002 24.476C73.8434 24.1493 73.764 23.8133 73.764 23.468C73.764 23.02 73.876 22.614 74.1 22.25C74.324 21.886 74.6414 21.5967 75.052 21.382C75.472 21.1673 75.9667 21.06 76.536 21.06C77.1987 21.06 77.7634 21.1813 78.23 21.424C78.6967 21.6573 79.0187 21.9513 79.196 22.306C79.2054 22.3153 79.2194 22.3573 79.238 22.432C79.266 22.4973 79.28 22.572 79.28 22.656C79.28 22.768 79.2334 22.8753 79.14 22.978C79.056 23.0713 78.9347 23.118 78.776 23.118C78.6827 23.118 78.6034 23.0993 78.538 23.062C78.4727 23.0153 78.4214 22.9687 78.384 22.922C78.1974 22.6513 77.9594 22.4367 77.67 22.278C77.3807 22.1193 77.0027 22.04 76.536 22.04C76.0134 22.04 75.6167 22.1707 75.346 22.432C75.0754 22.6933 74.94 23.0293 74.94 23.44C74.94 23.72 75.024 24.0187 75.192 24.336C75.3694 24.644 75.584 24.952 75.836 25.26C76.0974 25.5587 76.3494 25.8433 76.592 26.114C76.9374 26.4967 77.306 26.8793 77.698 27.262C78.09 27.6353 78.482 27.9947 78.874 28.34C79.266 28.676 79.6347 28.9887 79.98 29.278C80.3347 29.558 80.638 29.796 80.89 29.992C80.974 30.0667 81.0347 30.1413 81.072 30.216C81.1094 30.2907 81.128 30.3793 81.128 30.482C81.128 30.5753 81.086 30.6827 81.002 30.804C80.9274 30.9253 80.8107 30.986 80.652 30.986ZM93.6278 21.844C93.7865 21.928 93.8752 22.054 93.8938 22.222C93.9218 22.39 93.8798 22.544 93.7678 22.684C93.6838 22.8053 93.5765 22.8707 93.4458 22.88C93.3152 22.8893 93.1845 22.8613 93.0538 22.796C92.7458 22.6093 92.4145 22.4647 92.0598 22.362C91.7052 22.25 91.3318 22.194 90.9398 22.194C90.3892 22.194 89.8852 22.292 89.4278 22.488C88.9705 22.6747 88.5738 22.9407 88.2378 23.286C87.9018 23.6313 87.6405 24.042 87.4538 24.518C87.2672 24.994 87.1738 25.5213 87.1738 26.1C87.1738 26.716 87.2718 27.2667 87.4678 27.752C87.6638 28.2373 87.9298 28.6527 88.2658 28.998C88.6112 29.334 89.0078 29.5907 89.4558 29.768C89.9132 29.9453 90.4078 30.034 90.9398 30.034C91.3225 30.034 91.6912 29.9827 92.0458 29.88C92.4005 29.7773 92.7365 29.628 93.0538 29.432C93.1845 29.3667 93.3152 29.3433 93.4458 29.362C93.5765 29.3807 93.6885 29.446 93.7818 29.558C93.8938 29.7073 93.9358 29.866 93.9078 30.034C93.8798 30.1927 93.7912 30.3093 93.6418 30.384C93.4085 30.524 93.1425 30.6547 92.8438 30.776C92.5452 30.888 92.2325 30.9767 91.9058 31.042C91.5885 31.1073 91.2665 31.14 90.9398 31.14C90.2678 31.14 89.6332 31.0233 89.0358 30.79C88.4385 30.5567 87.9112 30.2207 87.4538 29.782C86.9965 29.3433 86.6325 28.816 86.3618 28.2C86.1005 27.5747 85.9698 26.8747 85.9698 26.1C85.9698 25.372 86.0958 24.7047 86.3478 24.098C86.5998 23.4913 86.9498 22.964 87.3978 22.516C87.8552 22.068 88.3825 21.718 88.9798 21.466C89.5865 21.214 90.2398 21.088 90.9398 21.088C91.4252 21.088 91.8965 21.1533 92.3538 21.284C92.8205 21.4147 93.2452 21.6013 93.6278 21.844ZM102.273 27.36C102.273 28.088 102.11 28.7367 101.783 29.306C101.466 29.8753 101.032 30.3233 100.481 30.65C99.9399 30.9767 99.3286 31.14 98.6473 31.14C97.9659 31.14 97.3499 30.9767 96.7993 30.65C96.2486 30.3233 95.8099 29.8753 95.4833 29.306C95.1659 28.7367 95.0073 28.088 95.0073 27.36C95.0073 26.632 95.1659 25.9833 95.4833 25.414C95.8099 24.8447 96.2486 24.3967 96.7993 24.07C97.3499 23.7433 97.9659 23.58 98.6473 23.58C99.3286 23.58 99.9399 23.7433 100.481 24.07C101.032 24.3967 101.466 24.8447 101.783 25.414C102.11 25.9833 102.273 26.632 102.273 27.36ZM101.153 27.36C101.153 26.8187 101.041 26.3427 100.817 25.932C100.603 25.5213 100.304 25.1993 99.9213 24.966C99.5479 24.7327 99.1233 24.616 98.6473 24.616C98.1713 24.616 97.7419 24.7327 97.3593 24.966C96.9859 25.1993 96.6873 25.5213 96.4633 25.932C96.2393 26.3427 96.1273 26.8187 96.1273 27.36C96.1273 27.892 96.2393 28.3633 96.4633 28.774C96.6873 29.1847 96.9859 29.5113 97.3593 29.754C97.7419 29.9873 98.1713 30.104 98.6473 30.104C99.1233 30.104 99.5479 29.9873 99.9213 29.754C100.304 29.5113 100.603 29.1847 100.817 28.774C101.041 28.3633 101.153 27.892 101.153 27.36ZM107.556 23.58C108.191 23.58 108.69 23.7107 109.054 23.972C109.418 24.2333 109.675 24.5833 109.824 25.022C109.983 25.4607 110.062 25.9507 110.062 26.492V30.426C110.062 30.5847 110.006 30.72 109.894 30.832C109.791 30.944 109.661 31 109.502 31C109.343 31 109.208 30.944 109.096 30.832C108.993 30.72 108.942 30.5847 108.942 30.426V26.52C108.942 26.1653 108.886 25.848 108.774 25.568C108.671 25.2787 108.494 25.05 108.242 24.882C107.999 24.7047 107.663 24.616 107.234 24.616C106.842 24.616 106.483 24.7047 106.156 24.882C105.829 25.05 105.568 25.2787 105.372 25.568C105.176 25.848 105.078 26.1653 105.078 26.52V30.426C105.078 30.5847 105.022 30.72 104.91 30.832C104.807 30.944 104.677 31 104.518 31C104.359 31 104.224 30.944 104.112 30.832C104.009 30.72 103.958 30.5847 103.958 30.426V24.322C103.958 24.1633 104.009 24.0327 104.112 23.93C104.224 23.818 104.359 23.762 104.518 23.762C104.686 23.762 104.821 23.818 104.924 23.93C105.027 24.0327 105.078 24.1633 105.078 24.322V25.316L104.798 25.624C104.845 25.3813 104.952 25.1387 105.12 24.896C105.288 24.644 105.498 24.42 105.75 24.224C106.002 24.028 106.282 23.874 106.59 23.762C106.898 23.6407 107.22 23.58 107.556 23.58ZM118.098 20.64C118.256 20.64 118.387 20.696 118.49 20.808C118.602 20.9107 118.658 21.0413 118.658 21.2V30.426C118.658 30.5847 118.602 30.72 118.49 30.832C118.387 30.944 118.256 31 118.098 31C117.93 31 117.794 30.944 117.692 30.832C117.589 30.72 117.538 30.5847 117.538 30.426V29.096L117.804 28.998C117.804 29.222 117.734 29.46 117.594 29.712C117.454 29.9547 117.262 30.1833 117.02 30.398C116.777 30.6127 116.488 30.79 116.152 30.93C115.825 31.07 115.47 31.14 115.088 31.14C114.462 31.14 113.893 30.9767 113.38 30.65C112.876 30.3233 112.474 29.8753 112.176 29.306C111.886 28.7367 111.742 28.088 111.742 27.36C111.742 26.6227 111.886 25.9693 112.176 25.4C112.474 24.8307 112.876 24.3873 113.38 24.07C113.884 23.7433 114.444 23.58 115.06 23.58C115.452 23.58 115.82 23.6453 116.166 23.776C116.511 23.9067 116.81 24.084 117.062 24.308C117.323 24.532 117.528 24.7793 117.678 25.05C117.827 25.3207 117.902 25.5913 117.902 25.862L117.538 25.778V21.2C117.538 21.0413 117.589 20.9107 117.692 20.808C117.794 20.696 117.93 20.64 118.098 20.64ZM115.214 30.104C115.68 30.104 116.091 29.9873 116.446 29.754C116.81 29.5113 117.09 29.1847 117.286 28.774C117.491 28.354 117.594 27.8827 117.594 27.36C117.594 26.828 117.491 26.3567 117.286 25.946C117.09 25.5353 116.81 25.2133 116.446 24.98C116.091 24.7373 115.68 24.616 115.214 24.616C114.756 24.616 114.346 24.7373 113.982 24.98C113.627 25.2133 113.347 25.5353 113.142 25.946C112.936 26.3567 112.834 26.828 112.834 27.36C112.834 27.8733 112.936 28.34 113.142 28.76C113.347 29.1707 113.627 29.4973 113.982 29.74C114.346 29.9827 114.756 30.104 115.214 30.104ZM121.811 30.426C121.811 30.5847 121.755 30.72 121.643 30.832C121.541 30.944 121.41 31 121.251 31C121.083 31 120.948 30.944 120.845 30.832C120.743 30.72 120.691 30.5847 120.691 30.426V24.21C120.691 24.0513 120.743 23.9207 120.845 23.818C120.957 23.706 121.093 23.65 121.251 23.65C121.41 23.65 121.541 23.706 121.643 23.818C121.755 23.9207 121.811 24.0513 121.811 24.21V30.426ZM121.251 22.712C121.018 22.712 120.845 22.6653 120.733 22.572C120.621 22.4787 120.565 22.334 120.565 22.138V21.942C120.565 21.746 120.626 21.6013 120.747 21.508C120.869 21.4147 121.041 21.368 121.265 21.368C121.489 21.368 121.657 21.4147 121.769 21.508C121.881 21.6013 121.937 21.746 121.937 21.942V22.138C121.937 22.334 121.877 22.4787 121.755 22.572C121.643 22.6653 121.475 22.712 121.251 22.712ZM123.543 23.804H126.833C126.982 23.804 127.104 23.8553 127.197 23.958C127.3 24.0607 127.351 24.182 127.351 24.322C127.351 24.4713 127.3 24.5973 127.197 24.7C127.104 24.7933 126.982 24.84 126.833 24.84H123.543C123.403 24.84 123.282 24.7887 123.179 24.686C123.076 24.5833 123.025 24.4573 123.025 24.308C123.025 24.168 123.076 24.0513 123.179 23.958C123.282 23.8553 123.403 23.804 123.543 23.804ZM125.013 21.9C125.172 21.9 125.302 21.956 125.405 22.068C125.508 22.1707 125.559 22.3013 125.559 22.46V29.222C125.559 29.446 125.592 29.614 125.657 29.726C125.722 29.838 125.806 29.9173 125.909 29.964C126.021 30.0013 126.128 30.02 126.231 30.02C126.324 30.02 126.404 30.006 126.469 29.978C126.544 29.9407 126.628 29.922 126.721 29.922C126.814 29.922 126.898 29.9687 126.973 30.062C127.057 30.146 127.099 30.258 127.099 30.398C127.099 30.566 127.001 30.7107 126.805 30.832C126.609 30.944 126.39 31 126.147 31C126.016 31 125.853 30.9907 125.657 30.972C125.47 30.9533 125.284 30.8927 125.097 30.79C124.91 30.6873 124.752 30.5193 124.621 30.286C124.5 30.0433 124.439 29.7073 124.439 29.278V22.46C124.439 22.3013 124.495 22.1707 124.607 22.068C124.719 21.956 124.854 21.9 125.013 21.9ZM129.987 30.426C129.987 30.5847 129.931 30.72 129.819 30.832C129.716 30.944 129.586 31 129.427 31C129.259 31 129.124 30.944 129.021 30.832C128.918 30.72 128.867 30.5847 128.867 30.426V24.21C128.867 24.0513 128.918 23.9207 129.021 23.818C129.133 23.706 129.268 23.65 129.427 23.65C129.586 23.65 129.716 23.706 129.819 23.818C129.931 23.9207 129.987 24.0513 129.987 24.21V30.426ZM129.427 22.712C129.194 22.712 129.021 22.6653 128.909 22.572C128.797 22.4787 128.741 22.334 128.741 22.138V21.942C128.741 21.746 128.802 21.6013 128.923 21.508C129.044 21.4147 129.217 21.368 129.441 21.368C129.665 21.368 129.833 21.4147 129.945 21.508C130.057 21.6013 130.113 21.746 130.113 21.942V22.138C130.113 22.334 130.052 22.4787 129.931 22.572C129.819 22.6653 129.651 22.712 129.427 22.712ZM138.873 27.36C138.873 28.088 138.71 28.7367 138.383 29.306C138.066 29.8753 137.632 30.3233 137.081 30.65C136.54 30.9767 135.928 31.14 135.247 31.14C134.566 31.14 133.95 30.9767 133.399 30.65C132.848 30.3233 132.41 29.8753 132.083 29.306C131.766 28.7367 131.607 28.088 131.607 27.36C131.607 26.632 131.766 25.9833 132.083 25.414C132.41 24.8447 132.848 24.3967 133.399 24.07C133.95 23.7433 134.566 23.58 135.247 23.58C135.928 23.58 136.54 23.7433 137.081 24.07C137.632 24.3967 138.066 24.8447 138.383 25.414C138.71 25.9833 138.873 26.632 138.873 27.36ZM137.753 27.36C137.753 26.8187 137.641 26.3427 137.417 25.932C137.202 25.5213 136.904 25.1993 136.521 24.966C136.148 24.7327 135.723 24.616 135.247 24.616C134.771 24.616 134.342 24.7327 133.959 24.966C133.586 25.1993 133.287 25.5213 133.063 25.932C132.839 26.3427 132.727 26.8187 132.727 27.36C132.727 27.892 132.839 28.3633 133.063 28.774C133.287 29.1847 133.586 29.5113 133.959 29.754C134.342 29.9873 134.771 30.104 135.247 30.104C135.723 30.104 136.148 29.9873 136.521 29.754C136.904 29.5113 137.202 29.1847 137.417 28.774C137.641 28.3633 137.753 27.892 137.753 27.36ZM144.155 23.58C144.79 23.58 145.289 23.7107 145.653 23.972C146.017 24.2333 146.274 24.5833 146.423 25.022C146.582 25.4607 146.661 25.9507 146.661 26.492V30.426C146.661 30.5847 146.605 30.72 146.493 30.832C146.391 30.944 146.26 31 146.101 31C145.943 31 145.807 30.944 145.695 30.832C145.593 30.72 145.541 30.5847 145.541 30.426V26.52C145.541 26.1653 145.485 25.848 145.373 25.568C145.271 25.2787 145.093 25.05 144.841 24.882C144.599 24.7047 144.263 24.616 143.833 24.616C143.441 24.616 143.082 24.7047 142.755 24.882C142.429 25.05 142.167 25.2787 141.971 25.568C141.775 25.848 141.677 26.1653 141.677 26.52V30.426C141.677 30.5847 141.621 30.72 141.509 30.832C141.407 30.944 141.276 31 141.117 31C140.959 31 140.823 30.944 140.711 30.832C140.609 30.72 140.557 30.5847 140.557 30.426V24.322C140.557 24.1633 140.609 24.0327 140.711 23.93C140.823 23.818 140.959 23.762 141.117 23.762C141.285 23.762 141.421 23.818 141.523 23.93C141.626 24.0327 141.677 24.1633 141.677 24.322V25.316L141.397 25.624C141.444 25.3813 141.551 25.1387 141.719 24.896C141.887 24.644 142.097 24.42 142.349 24.224C142.601 24.028 142.881 23.874 143.189 23.762C143.497 23.6407 143.819 23.58 144.155 23.58ZM148.327 29.852C148.243 29.7307 148.206 29.6047 148.215 29.474C148.225 29.334 148.304 29.2127 148.453 29.11C148.547 29.0447 148.654 29.0167 148.775 29.026C148.906 29.0353 149.023 29.096 149.125 29.208C149.387 29.516 149.685 29.7633 150.021 29.95C150.357 30.1273 150.768 30.216 151.253 30.216C151.477 30.2067 151.701 30.1693 151.925 30.104C152.149 30.0387 152.336 29.9267 152.485 29.768C152.644 29.6 152.723 29.3807 152.723 29.11C152.723 28.8487 152.644 28.6433 152.485 28.494C152.327 28.3353 152.121 28.2093 151.869 28.116C151.617 28.0133 151.342 27.9247 151.043 27.85C150.735 27.766 150.432 27.6727 150.133 27.57C149.835 27.458 149.564 27.3227 149.321 27.164C149.088 26.996 148.897 26.7907 148.747 26.548C148.607 26.296 148.537 25.9927 148.537 25.638C148.537 25.218 148.649 24.854 148.873 24.546C149.107 24.238 149.415 24 149.797 23.832C150.189 23.664 150.614 23.58 151.071 23.58C151.333 23.58 151.603 23.6127 151.883 23.678C152.173 23.734 152.453 23.8367 152.723 23.986C152.994 24.126 153.232 24.322 153.437 24.574C153.521 24.6673 153.568 24.784 153.577 24.924C153.587 25.064 153.526 25.19 153.395 25.302C153.293 25.3767 153.176 25.4093 153.045 25.4C152.924 25.3907 152.821 25.344 152.737 25.26C152.541 25.0267 152.294 24.8493 151.995 24.728C151.706 24.5973 151.384 24.532 151.029 24.532C150.805 24.532 150.586 24.5647 150.371 24.63C150.157 24.6953 149.975 24.8073 149.825 24.966C149.685 25.1153 149.615 25.3253 149.615 25.596C149.625 25.848 149.709 26.0533 149.867 26.212C150.026 26.3707 150.241 26.5013 150.511 26.604C150.782 26.6973 151.081 26.7907 151.407 26.884C151.706 26.9587 151.991 27.0473 152.261 27.15C152.541 27.2433 152.793 27.3693 153.017 27.528C153.241 27.6867 153.419 27.892 153.549 28.144C153.68 28.3867 153.745 28.6947 153.745 29.068C153.745 29.4973 153.624 29.8707 153.381 30.188C153.139 30.496 152.817 30.734 152.415 30.902C152.023 31.0607 151.599 31.14 151.141 31.14C150.628 31.14 150.119 31.042 149.615 30.846C149.121 30.65 148.691 30.3187 148.327 29.852Z" fill="#1D1615"/>
</svg>
