<svg width="25" height="24" viewBox="0 0 25 24" fill="none" xmlns="http://www.w3.org/2000/svg">
<g id="Frame">
<path id="Vector" d="M12.5 22C18.0228 22 22.5 17.5228 22.5 12C22.5 6.47715 18.0228 2 12.5 2C6.97715 2 2.5 6.47715 2.5 12C2.5 17.5228 6.97715 22 12.5 22Z" stroke="black"/>
<path id="Vector_2" d="M7.10015 18C9.89811 15.0694 15.0718 14.9314 17.8999 18M15.494 9.00022C15.494 10.657 14.149 12.0001 12.4898 12.0001C10.8307 12.0001 9.48565 10.657 9.48565 9.00022C9.48565 7.34342 10.8307 6.00031 12.4898 6.00031C14.149 6.00031 15.494 7.34342 15.494 9.00022Z" stroke="black" stroke-width="1.19997" stroke-linecap="round"/>
</g>
</svg>
