<svg width="25" height="24" viewBox="0 0 25 24" fill="none" xmlns="http://www.w3.org/2000/svg">
<g id="store-01">
<path id="Vector" d="M3.4668 10.4961V15.4979C3.4668 18.3273 3.4668 19.742 4.34548 20.621C5.22416 21.5001 6.63837 21.5001 9.4668 21.5001H15.4668C18.2952 21.5001 19.7094 21.5001 20.5881 20.621C21.4668 19.742 21.4668 18.3273 21.4668 15.4979V10.4961" stroke="black" stroke-width="1.5" stroke-linecap="round"/>
<path id="Vector_2" d="M15.4668 16.9932C14.7827 17.6004 13.6936 17.9932 12.4668 17.9932C11.24 17.9932 10.1509 17.6004 9.4668 16.9932" stroke="black" stroke-width="1.5" stroke-linecap="round"/>
<path id="Vector_3" d="M10.6038 8.41848C10.3218 9.43688 9.29628 11.1936 7.34777 11.4482C5.62733 11.673 4.32246 10.922 3.98916 10.608C3.62168 10.3534 2.78416 9.53872 2.57906 9.02952C2.37395 8.52032 2.61324 7.41706 2.78416 6.96726L3.46743 4.98888C3.63423 4.49196 4.0247 3.31666 4.42501 2.91913C4.82533 2.5216 5.63581 2.5043 5.9694 2.5043H12.9749C14.7781 2.52978 18.7209 2.48822 19.5003 2.50431C20.2797 2.52039 20.7481 3.17373 20.8848 3.45379C22.0477 6.27061 22.5 7.88382 22.5 8.57124C22.3482 9.30456 21.72 10.6873 19.5003 11.2955C17.1933 11.9275 15.8854 10.6981 15.4751 10.2261M9.65522 10.2261C9.97997 10.625 10.9987 11.4279 12.4754 11.4482C13.9522 11.4686 15.2273 10.4383 15.6802 9.92062C15.8084 9.76786 16.0853 9.31467 16.3725 8.41848" stroke="black" stroke-width="1.5" stroke-linecap="round" stroke-linejoin="round"/>
</g>
</svg>
